<?xml version="1.0" encoding="UTF-8" standalone="no"?>
<svg
   xmlns:dc="http://purl.org/dc/elements/1.1/"
   xmlns:cc="http://creativecommons.org/ns#"
   xmlns:rdf="http://www.w3.org/1999/02/22-rdf-syntax-ns#"
   xmlns:svg="http://www.w3.org/2000/svg"
   xmlns="http://www.w3.org/2000/svg"
   version="1.1"
   id="svg4764"
   viewBox="0 0 125.84483 24.835889"
   height="7.0092397mm"
   width="35.516209mm">
  <defs
     id="defs4766" />
  <metadata
     id="metadata4769">
    <rdf:RDF>
      <cc:Work
         rdf:about="">
        <dc:format>image/svg+xml</dc:format>
        <dc:type
           rdf:resource="http://purl.org/dc/dcmitype/StillImage" />
        <dc:title></dc:title>
      </cc:Work>
    </rdf:RDF>
  </metadata>
  <g
     transform="translate(-116.31907,-114.12621)"
     id="layer1">
    <g
       transform="translate(-5.4905365,-1.9675169)"
       id="g4933">
      <path
         style="color:#000000;clip-rule:nonzero;display:inline;overflow:visible;visibility:visible;opacity:1;isolation:auto;mix-blend-mode:normal;color-interpolation:sRGB;color-interpolation-filters:linearRGB;solid-color:#000000;solid-opacity:1;fill:#87d9da;fill-opacity:1;fill-rule:evenodd;stroke:none;stroke-width:6;stroke-linecap:round;stroke-linejoin:round;stroke-miterlimit:4;stroke-dasharray:none;stroke-dashoffset:0;stroke-opacity:1;color-rendering:auto;image-rendering:auto;shape-rendering:auto;text-rendering:auto;enable-background:accumulate"
         d="m 22.078125,2.875 a 31.526197,31.526197 0 0 1 -2.933594,5.2441406 l 4.927735,0 0,-5.2441406 -1.994141,0 z"
         transform="translate(116.67262,114.43557)"
         id="rect4345" />
      <rect
         style="color:#000000;clip-rule:nonzero;display:inline;overflow:visible;visibility:visible;opacity:1;isolation:auto;mix-blend-mode:normal;color-interpolation:sRGB;color-interpolation-filters:linearRGB;solid-color:#000000;solid-opacity:1;fill:#69d0d1;fill-opacity:1;fill-rule:evenodd;stroke:none;stroke-width:6;stroke-linecap:round;stroke-linejoin:round;stroke-miterlimit:4;stroke-dasharray:none;stroke-dashoffset:0;stroke-opacity:1;color-rendering:auto;image-rendering:auto;shape-rendering:auto;text-rendering:auto;enable-background:accumulate"
         id="rect4347"
         width="5.2456789"
         height="5.2456789"
         x="135.49905"
         y="123.36995" />
      <path
         style="color:#000000;clip-rule:nonzero;display:inline;overflow:visible;visibility:visible;opacity:1;isolation:auto;mix-blend-mode:normal;color-interpolation:sRGB;color-interpolation-filters:linearRGB;solid-color:#000000;solid-opacity:1;fill:#69d0d1;fill-opacity:1;fill-rule:evenodd;stroke:none;stroke-width:6;stroke-linecap:round;stroke-linejoin:round;stroke-miterlimit:4;stroke-dasharray:none;stroke-dashoffset:0;stroke-opacity:1;color-rendering:auto;image-rendering:auto;shape-rendering:auto;text-rendering:auto;enable-background:accumulate"
         d="m 17.841797,9.9023438 a 31.526197,31.526197 0 0 1 -4.128906,4.2773442 l 4.128906,0 0,-4.2773442 z"
         transform="translate(116.67262,114.43557)"
         id="rect4349" />
      <path
         style="color:#000000;clip-rule:nonzero;display:inline;overflow:visible;visibility:visible;opacity:1;isolation:auto;mix-blend-mode:normal;color-interpolation:sRGB;color-interpolation-filters:linearRGB;solid-color:#000000;solid-opacity:1;fill:#32a1a2;fill-opacity:1;fill-rule:evenodd;stroke:none;stroke-width:6;stroke-linecap:round;stroke-linejoin:round;stroke-miterlimit:4;stroke-dasharray:none;stroke-dashoffset:0;stroke-opacity:1;color-rendering:auto;image-rendering:auto;shape-rendering:auto;text-rendering:auto;enable-background:accumulate"
         d="m 11.611328,15.802734 a 31.526197,31.526197 0 0 1 -5.2460936,3.033204 l 0,1.404296 5.2460936,0 0,-4.4375 z"
         transform="translate(116.67262,114.43557)"
         id="rect4351" />
      <rect
         style="color:#000000;clip-rule:nonzero;display:inline;overflow:visible;visibility:visible;opacity:1;isolation:auto;mix-blend-mode:normal;color-interpolation:sRGB;color-interpolation-filters:linearRGB;solid-color:#000000;solid-opacity:1;fill:#32a1a2;fill-opacity:1;fill-rule:evenodd;stroke:none;stroke-width:6;stroke-linecap:round;stroke-linejoin:round;stroke-miterlimit:4;stroke-dasharray:none;stroke-dashoffset:0;stroke-opacity:1;color-rendering:auto;image-rendering:auto;shape-rendering:auto;text-rendering:auto;enable-background:accumulate"
         id="rect4353"
         width="5.2456789"
         height="5.2456789"
         x="129.26868"
         y="129.42998" />
      <rect
         y="129.42998"
         x="135.49905"
         height="5.2456789"
         width="5.2456789"
         id="rect4355"
         style="color:#000000;clip-rule:nonzero;display:inline;overflow:visible;visibility:visible;opacity:1;isolation:auto;mix-blend-mode:normal;color-interpolation:sRGB;color-interpolation-filters:linearRGB;solid-color:#000000;solid-opacity:1;fill:#32a1a2;fill-opacity:1;fill-rule:evenodd;stroke:none;stroke-width:6;stroke-linecap:round;stroke-linejoin:round;stroke-miterlimit:4;stroke-dasharray:none;stroke-dashoffset:0;stroke-opacity:1;color-rendering:auto;image-rendering:auto;shape-rendering:auto;text-rendering:auto;enable-background:accumulate" />
      <path
         style="font-style:normal;font-variant:normal;font-weight:normal;font-stretch:normal;font-size:23.5446167px;line-height:125%;font-family:'Cherry Swash';-inkscape-font-specification:'Cherry Swash, Normal';text-align:start;letter-spacing:0px;word-spacing:0px;writing-mode:lr-tb;text-anchor:start;fill:#f9fafc;fill-opacity:1;stroke:none;stroke-width:1px;stroke-linecap:butt;stroke-linejoin:miter;stroke-opacity:1"
         d="m 31.369141,3.3476562 c -1.492386,0 -2.793769,0.1153996 -3.902344,0.3457032 l 0,1.8183594 c 0.627806,-0.1419085 1.347609,-0.2510487 2.195312,-0.3144532 l 0,13.2050784 -2.195312,0 0,1.777344 6.216797,0 0,-1.777344 -2.033203,0 0,-5.333985 c 0.561186,0.221274 1.059613,0.370199 1.496093,0.449219 0.717074,2.544607 1.503955,4.339679 2.361328,5.382813 0.857374,1.02732 2.011205,1.541015 3.460938,1.541015 0.87296,0 1.61275,-0.292173 2.220703,-0.876953 0.607953,-0.584787 0.912109,-1.486138 0.912109,-2.703125 l -1.753906,0 c 0,0.553173 -0.15503,0.996218 -0.466797,1.328125 -0.296186,0.3161 -0.678824,0.472656 -1.146484,0.472656 -0.73266,0 -1.388064,-0.385709 -1.964844,-1.160156 -0.576773,-0.77444 -1.122292,-2.071092 -1.636719,-3.888672 1.402974,-0.09483 2.548954,-0.577992 3.4375,-1.447265 0.888547,-0.86928 1.333985,-2.070429 1.333985,-3.603516 0,-1.5488867 -0.678956,-2.8054246 -2.035156,-3.7695312 -1.356207,-0.9641001 -3.522587,-1.4453126 -6.5,-1.4453126 z M 31.650391,5.125 c 2.244753,0 3.849919,0.3093813 4.816406,0.9257812 0.966493,0.6005867 1.449219,1.4694619 1.449219,2.6074219 0,0.9324934 -0.319858,1.6982349 -0.958985,2.2988279 -0.639133,0.584787 -1.402469,0.878907 -2.291015,0.878907 -1.278267,0 -2.282965,-0.173778 -3.015625,-0.521485 z"
         transform="translate(116.67262,114.43557)"
         id="path4890" />
      <path
         id="path4892"
         style="font-style:normal;font-variant:normal;font-weight:normal;font-stretch:normal;font-size:23.5446167px;line-height:125%;font-family:'Cherry Swash';-inkscape-font-specification:'Cherry Swash, Normal';text-align:start;letter-spacing:0px;word-spacing:0px;writing-mode:lr-tb;text-anchor:start;fill:#f9fafc;fill-opacity:1;stroke:none;stroke-width:1px;stroke-linecap:butt;stroke-linejoin:miter;stroke-opacity:1"
         d="m 163.0485,134.85274 q -1.61342,0 -2.52535,-0.92459 -0.91193,-0.9483 -0.91193,-2.513 0,-1.5884 1.21591,-2.65523 1.2159,-1.06684 3.60095,-1.06684 l 2.54873,0 0,-1.20909 q 0,-2.18108 -2.05768,-2.18108 -1.73034,0 -3.18007,0.42673 l 0,1.5884 -1.63681,0 0,-2.82119 q 1.05223,-0.45044 2.47858,-0.71123 1.44974,-0.26078 2.40844,-0.26078 1.87063,0 2.92286,1.09055 1.05222,1.06684 1.05222,2.8686 l 0,6.70923 1.9174,0 0,0.99571 q -0.86517,0.54528 -1.98754,0.54528 -1.12238,0 -1.51989,-0.37932 -0.39751,-0.37932 -0.39751,-1.2802 -1.75371,1.77805 -3.92831,1.77805 z m 0.21044,-1.77805 q 2.01093,0 3.71787,-2.29963 l 0,-1.51729 -2.57211,0 q -1.42636,0 -2.12784,0.56898 -0.6781,0.56898 -0.6781,1.44616 0,0.85347 0.42089,1.32762 0.42089,0.47416 1.23929,0.47416 z" />
      <path
         id="path4894"
         style="font-style:normal;font-variant:normal;font-weight:normal;font-stretch:normal;font-size:23.5446167px;line-height:125%;font-family:'Cherry Swash';-inkscape-font-specification:'Cherry Swash, Normal';text-align:start;letter-spacing:0px;word-spacing:0px;writing-mode:lr-tb;text-anchor:start;fill:#f9fafc;fill-opacity:1;stroke:none;stroke-width:1px;stroke-linecap:butt;stroke-linejoin:miter;stroke-opacity:1"
         d="m 178.96016,134.61567 0,-1.54098 1.80049,0 0,-5.998 q 0,-1.37504 -0.35075,-2.06255 -0.35074,-0.71123 -1.61342,-0.71123 -1.23929,0 -3.43728,1.18537 l 0,7.58641 1.80049,0 0,1.54098 -5.58851,0 0,-1.54098 1.80048,0 0,-8.77178 -1.80048,0 0,-1.54099 3.34375,0 0.23383,1.06684 q 2.36166,-1.30392 4.23229,-1.30392 1.89402,0 2.71242,1.37504 2.40843,-1.37504 4.30244,-1.37504 1.89401,0 2.64226,1.20909 0.77163,1.20908 0.77163,3.34276 l 0,6.11653 1.9174,0 0,0.99571 q -0.86517,0.54528 -2.01093,0.54528 -1.12237,0 -1.51988,-0.37932 -0.37413,-0.40303 -0.37413,-1.2802 l 0,-5.998 q 0,-1.37504 -0.35074,-2.06255 -0.35074,-0.71123 -1.56665,-0.71123 -1.19252,0 -3.29698,1.06684 0.1403,0.78234 0.1403,1.70694 l 0,5.998 2.0343,0 0,1.54098 -5.82233,0 z" />
      <path
         id="path4896"
         style="font-style:normal;font-variant:normal;font-weight:normal;font-stretch:normal;font-size:23.5446167px;line-height:125%;font-family:'Cherry Swash';-inkscape-font-specification:'Cherry Swash, Normal';text-align:start;letter-spacing:0px;word-spacing:0px;writing-mode:lr-tb;text-anchor:start;fill:#f9fafc;fill-opacity:1;stroke:none;stroke-width:1px;stroke-linecap:butt;stroke-linejoin:miter;stroke-opacity:1"
         d="m 192.4422,124.30291 0,-1.54099 3.34375,0 0.32736,1.44616 q 1.40297,-1.68324 3.60096,-1.68324 2.19799,0 3.39052,1.73065 1.19252,1.70694 1.19252,4.4096 0,2.67895 -1.40298,4.4333 -1.40296,1.75435 -3.99846,1.75435 -1.21591,0 -2.66564,-0.47415 l 0,3.79321 1.80047,0 0,1.54098 -5.5885,0 0,-1.54098 1.80049,0 0,-13.86889 -1.80049,0 z m 9.86757,4.48071 q 0,-1.96772 -0.77163,-3.22422 -0.77164,-1.25649 -2.17461,-1.25649 -1.37959,0 -2.26814,1.11424 -0.86516,1.11426 -0.86516,2.67896 l 0,4.24364 q 1.26267,0.73494 2.50196,0.73494 1.61342,0 2.59549,-1.16168 0.98209,-1.18537 0.98209,-3.12939 z" />
      <path
         style="font-style:normal;font-variant:normal;font-weight:normal;font-stretch:normal;font-size:23.5446167px;line-height:125%;font-family:'Cherry Swash';-inkscape-font-specification:'Cherry Swash, Normal';text-align:start;letter-spacing:0px;word-spacing:0px;writing-mode:lr-tb;text-anchor:start;fill:#f9fafc;fill-opacity:1;stroke:none;stroke-width:1px;stroke-linecap:butt;stroke-linejoin:miter;stroke-opacity:1"
         d="m 212.0984,118.01955 c -0.73735,0 -1.41825,0.0303 -2.0625,0.0801 l 0,1.78321 c 0.45013,-0.0294 0.91645,-0.0539 1.43164,-0.0606 l -4.63086,13.01562 -1.51953,0 0,1.77735 4.95703,0 0,-1.77735 -1.40234,0 1.05273,-3.10547 6.40625,0 1.05274,3.10547 -1.38086,0 0,1.77735 4.95703,0 0,-1.77735 -1.54297,0 -4.62891,-13.03906 1.40235,0 0,-1.7793 z m 1.0293,2.25391 2.68945,7.91797 -5.37891,0 z"
         id="path4898" />
      <path
         id="path4900"
         style="font-style:normal;font-variant:normal;font-weight:normal;font-stretch:normal;font-size:23.5446167px;line-height:125%;font-family:'Cherry Swash';-inkscape-font-specification:'Cherry Swash, Normal';text-align:start;letter-spacing:0px;word-spacing:0px;writing-mode:lr-tb;text-anchor:start;fill:#f9fafc;fill-opacity:1;stroke:none;stroke-width:1px;stroke-linecap:butt;stroke-linejoin:miter;stroke-opacity:1"
         d="m 221.41823,124.30291 0,-1.54099 3.34374,0 0.32736,1.44616 q 1.40297,-1.68324 3.60096,-1.68324 2.19799,0 3.39051,1.73065 1.19253,1.70694 1.19253,4.4096 0,2.67895 -1.40297,4.4333 -1.40298,1.75435 -3.99847,1.75435 -1.21591,0 -2.66564,-0.47415 l 0,3.79321 1.80047,0 0,1.54098 -5.58849,0 0,-1.54098 1.80047,0 0,-13.86889 -1.80047,0 z m 9.86756,4.48071 q 0,-1.96772 -0.77164,-3.22422 -0.77163,-1.25649 -2.17461,-1.25649 -1.37958,0 -2.26813,1.11424 -0.86516,1.11426 -0.86516,2.67896 l 0,4.24364 q 1.26266,0.73494 2.50196,0.73494 1.61342,0 2.5955,-1.16168 0.98208,-1.18537 0.98208,-3.12939 z" />
      <path
         id="path4902"
         style="font-style:normal;font-variant:normal;font-weight:normal;font-stretch:normal;font-size:23.5446167px;line-height:125%;font-family:'Cherry Swash';-inkscape-font-specification:'Cherry Swash, Normal';text-align:start;letter-spacing:0px;word-spacing:0px;writing-mode:lr-tb;text-anchor:start;fill:#f9fafc;fill-opacity:1;stroke:none;stroke-width:1px;stroke-linecap:butt;stroke-linejoin:miter;stroke-opacity:1"
         d="m 234.57108,124.30291 0,-1.54099 3.34375,0 0.32736,1.44616 q 1.40297,-1.68324 3.60096,-1.68324 2.19799,0 3.39051,1.73065 1.19253,1.70694 1.19253,4.4096 0,2.67895 -1.40297,4.4333 -1.40298,1.75435 -3.99847,1.75435 -1.21591,0 -2.66564,-0.47415 l 0,3.79321 1.80047,0 0,1.54098 -5.5885,0 0,-1.54098 1.80048,0 0,-13.86889 -1.80048,0 z m 9.86757,4.48071 q 0,-1.96772 -0.77164,-3.22422 -0.77163,-1.25649 -2.17461,-1.25649 -1.37958,0 -2.26813,1.11424 -0.86516,1.11426 -0.86516,2.67896 l 0,4.24364 q 1.26267,0.73494 2.50196,0.73494 1.61342,0 2.59549,-1.16168 0.98209,-1.18537 0.98209,-3.12939 z" />
    </g>
    <text
       id="text4804-8"
       y="81.727768"
       x="134.82259"
       style="font-style:normal;font-variant:normal;font-weight:normal;font-stretch:normal;font-size:23.70749855px;line-height:125%;font-family:'Cherry Swash';-inkscape-font-specification:'Cherry Swash, Normal';text-align:start;letter-spacing:0px;word-spacing:0px;writing-mode:lr-tb;text-anchor:start;opacity:1;fill:#000000;fill-opacity:1;stroke:none;stroke-width:1px;stroke-linecap:butt;stroke-linejoin:miter;stroke-opacity:1;"
       xml:space="preserve"><tspan
         style="font-style:normal;font-variant:normal;font-weight:normal;font-stretch:normal;font-size:23.70749855px;line-height:125%;font-family:'Cherry Swash';-inkscape-font-specification:'Cherry Swash, Normal';text-align:start;writing-mode:lr-tb;text-anchor:start;"
         y="81.727768"
         x="134.82259"
         id="tspan4806-1">RampApp</tspan></text>
    <text
       id="text4885"
       y="64.275009"
       x="146.4818"
       style="font-style:normal;font-weight:normal;font-size:5.55491924px;line-height:125%;font-family:sans-serif;letter-spacing:0px;word-spacing:0px;fill:#000000;fill-opacity:1;stroke:none;stroke-width:1px;stroke-linecap:butt;stroke-linejoin:miter;stroke-opacity:1"
       xml:space="preserve"><tspan
         y="64.275009"
         x="146.4818"
         id="tspan4887">Fuente: Cherry Swash</tspan></text>
  </g>
</svg>
